<svg xmlns="http://www.w3.org/2000/svg" xmlns:xlink="http://www.w3.org/1999/xlink" viewBox="0 0 250.23 249.43">
  <defs>
    <style>
      .cls-2 {
        fill: none;
      }
      
      .cls-2, .cls-3, .cls-4 {
        stroke-width: 0px;
      }

      .cls-5 {
        clip-path: url(#clippath-1);
      }

      .cls-4 {
        fill: #fff;
      }
    </style>
    <clipPath id="clippath">
      <rect class="cls-2" width="250.23" height="249.43"/>
    </clipPath>
    <clipPath id="clippath-1">
      <rect class="cls-2" width="250.23" height="249.43"/>
    </clipPath>
  </defs>
  <g>
    <g class="cls-5">
      <g>
        <path class="cls-3" d="M134.31,249.43h-19.19c-1.02-.25-2.03-.62-3.07-.72-53.29-5.29-97.24-44.15-108.95-96.44C1.84,146.6,1.03,140.83,0,135.11c0-6.66,0-13.32,0-19.99.5-2.85,1.05-5.7,1.48-8.56C11.46,39.85,73.6-6.95,140.6,1.79c66.93,8.73,114.4,68.12,108.15,135.3-4.83,51.83-42.41,95.74-92.93,108.31-7.07,1.76-14.33,2.7-21.51,4.03ZM141.68,153.47v-57.52c12.17,0,24.01-.05,35.85.04,2.72.02,4.85-.36,4.95-3.65.1-3.4-2.08-4.34-4.93-4.34-13.05-.03-26.1-.02-39.15-.01-3.21,0-4.95,1.44-4.95,4.83.03,21.17.03,42.35,0,63.52,0,3.22,1.59,4.6,4.67,4.6,2.53,0,5.06.02,7.59.02,10.92,0,21.84,0,32.76,0,2.3,0,4.52-.38,4.5-3.26-.02-2.84-1.63-4.38-4.62-4.23-1.06.06-2.13,0-3.2,0-11.04,0-22.08,0-33.47,0ZM96.98,110.73c-3.72-3.43-8.2-7.42-12.51-11.57-3.74-3.6-7.17-7.54-11-11.03-1.07-.98-3.38-1.63-4.57-1.13-1.14.48-1.62,2.63-2.29,4.09-.2.44-.04,1.05-.04,1.58,0,20.25,0,40.5,0,60.76,0,1.19-.28,2.71.33,3.5.98,1.3,2.62,2.99,3.92,2.93,1.24-.05,2.62-1.97,3.51-3.34.49-.75.12-2.08.12-3.14,0-16.39,0-32.78,0-49.16,0-1.11.12-2.23.18-3.34-.29.42-.58.85-.86,1.27,6.46,5.73,12.99,11.4,19.36,17.23,3.47,3.18,5.12,3.37,8.35.04,5.2-5.35,10.34-10.76,15.49-16.15,2.86-2.98,5.89-5.83,8.44-9.06.78-.99.83-3.74.06-4.46-1.02-.96-3.23-1.13-4.81-.87-1.1.18-1.99,1.64-2.96,2.54-7.01,6.53-14.02,13.07-20.73,19.32Z"/>
        <path class="cls-4" d="M134.31,249.43c7.17-1.32,14.44-2.27,21.51-4.03,50.52-12.57,88.1-56.48,92.93-108.31C255,69.91,207.52,10.51,140.6,1.79,73.6-6.95,11.46,39.85,1.48,106.56c-.43,2.86-.98,5.71-1.48,8.56V0c83.41,0,166.82,0,250.23,0,0,83.14,0,166.29,0,249.43-38.64,0-77.28,0-115.92,0Z"/>
        <path class="cls-4" d="M0,135.11c1.03,5.72,1.84,11.49,3.11,17.16,11.71,52.3,55.65,91.15,108.95,96.44,1.04.1,2.04.47,3.07.72H0c0-38.11,0-76.21,0-114.32Z"/>
        <path class="cls-4" d="M141.68,153.47c11.39,0,22.43,0,33.47,0,1.07,0,2.13.05,3.2,0,2.99-.15,4.61,1.39,4.62,4.23.02,2.88-2.2,3.26-4.5,3.26-10.92,0-21.84,0-32.76,0-2.53,0-5.06-.02-7.59-.02-3.08,0-4.67-1.38-4.67-4.6.03-21.17.03-42.35,0-63.52,0-3.39,1.74-4.83,4.95-4.83,13.05,0,26.1-.02,39.15.01,2.85,0,5.03.95,4.93,4.34-.1,3.29-2.22,3.67-4.95,3.65-11.84-.08-23.67-.04-35.85-.04v57.52Z"/>
        <path class="cls-4" d="M96.98,110.73c6.7-6.25,13.71-12.78,20.73-19.32.97-.9,1.87-2.36,2.96-2.54,1.58-.26,3.79-.09,4.81.87.77.72.72,3.48-.06,4.46-2.54,3.23-5.58,6.07-8.44,9.06-5.16,5.39-10.3,10.8-15.49,16.15-3.23,3.33-4.88,3.14-8.35-.04-6.37-5.83-12.9-11.5-19.36-17.23.29-.42.58-.85.86-1.27-.06,1.11-.18,2.23-.18,3.34-.01,16.39,0,32.78,0,49.16,0,1.07.37,2.39-.12,3.14-.89,1.37-2.27,3.29-3.51,3.34-1.3.05-2.93-1.63-3.92-2.93-.6-.8-.33-2.31-.33-3.5-.01-20.25-.01-40.5,0-60.76,0-.53-.16-1.14.04-1.58.66-1.46,1.15-3.61,2.29-4.09,1.2-.5,3.5.16,4.57,1.13,3.83,3.5,7.26,7.43,11,11.03,4.31,4.16,8.78,8.14,12.51,11.57Z"/>
      </g>
    </g>
  </g>
</svg>